<svg height="38" viewBox="0 0 242 38" width="242" xmlns="http://www.w3.org/2000/svg" xmlns:xlink="http://www.w3.org/1999/xlink"><linearGradient id="a" x1="8.683926%" x2="97.237835%" y1="3.804205%" y2="70.610414%"><stop offset="0" stop-color="#f6c852"/><stop offset="1" stop-color="#f2a73b"/></linearGradient><linearGradient id="b" x1="40.0507%" x2="63.815299%" y1="19.106367%" y2="55.306396%"><stop offset="0" stop-color="#4d97f6"/><stop offset="1" stop-color="#3d72f6"/></linearGradient><linearGradient id="c" x1="62.561299%" x2="5.943249%" y1="0%" y2="120.385565%"><stop offset="0" stop-color="#f6c852"/><stop offset="1" stop-color="#4d97f6"/></linearGradient><mask id="d" fill="#fff"><path d="m3.13154545.20878409-3.00674999 5.20794318 2.21328409 3.83346591 5.22003409-9.04140909z" fill="#fff" fill-rule="evenodd"/></mask><mask id="e" fill="#fff"><path d="m0 .20878409 10.0941818 17.48367041 7.0874318-12.27572723-3.0069659-5.20794318z" fill="#fff" fill-rule="evenodd"/></mask><mask id="f" fill="#fff"><path d="m16.9065455.20878409-7.51925005 13.02406821-2.2992159-3.98265912-7.08764773 12.27594322 9.38686363 16.2579545 21.69411365-37.57530681z" fill="#fff" fill-rule="evenodd"/></mask><g fill="none" fill-rule="evenodd"><path d="m3.13154545.20878409-3.00674999 5.20794318 2.21328409 3.83346591 5.22003409-9.04140909z" mask="url(#d)" transform="translate(17.056818 .007125)"/><path d="m0 .20878409 10.0941818 17.48367041 7.0874318-12.27572723-3.0069659-5.20794318z" fill="url(#a)" mask="url(#e)" transform="translate(0 .007125)"/><path d="m16.9065455.20878409-7.51925005 13.02406821-2.2992159-3.98265912-7.08764773 12.27594322 9.38686363 16.2579545 21.69411365-37.57530681z" fill="url(#b)" mask="url(#f)" transform="translate(12.306818 .007125)"/><g fill="#ffffff"><path d="m65.215125 8.48831477-5.6041364 9.61227273-5.5223068-9.65955682-6.4202727-.02720454 11.8952954 20.80672726 12.0716932-20.70481817z"/><path d="m81.2317148 29.5934284h-4.2115228l-.8724886-1.4386023-5.9925568-9.9225341 2.0925909-3.450659zm-11.7579773-10.238625 2.1014432 3.4791591-4.0998977 6.7594659h-4.2117387z"/><path d="m93.2478761 25.9925614v3.6009318h-.7194091l-3.6005-3.6009318zm-5.8802841.0852841 3.5156478 3.5156477h-7.7500568v-14.5419091h3.6009318v10.9409773h.5481932z"/><g transform="translate(94.568182 14.473034)"><path d="m14.7155864.57859318v7.27095455c0 1.13892045-.2560682 2.22969317-.7608637 3.24165907-.4814772.9651137-1.1864204 1.8270227-2.0383977 2.4922387l-.2029545.1582613-2.60731823-2.6066704.30507955-.1949659c.22303409-.142716.43268182-.311341.62268178-.501341.6917728-.69155677 1.0726364-1.61111359 1.0726364-2.58918177v-7.27095455zm-6.89440913 10.91593182 2.87439773 2.8743977-.3951136.1690568c-.90379549.3862614-1.86480685.5825228-2.85582958.5825228-1.47984091 0-2.90354546-.44175-4.11760227-1.2775341-1.97448864-1.3587159-3.15335228-3.5994205-3.15335228-5.99342047v-4.00230682l3.60913637 3.60892045v.39338637c0 .97806818.38086363 1.897625 1.07263636 2.58918177.69134091.6915569 1.61089773 1.0726364 2.58918182 1.0726364.083125 0 .16538636-.0028068.24484091-.0079886zm-4.03836363-5.683375-3.60913637-3.60892045v-1.62363637h3.60913637z"/><path d="m29.8444011 11.5195273-.0062613 3.6009318h-12.1308523v-8.22117046l3.6009318 3.60093186v1.0193068zm-7.7446591-1.85595457-4.3924545-4.39202273v-4.693h12.1368977v3.60093182h-8.1432272l1.8797045 1.883375h6.2635227v3.60071591z"/><path d="m32.8390818 6.76089091 3.6009318 3.60093179v4.7586364h-3.6009318zm13.3993182-6.59364773v14.95321592h-3.3951705l-.1407727-.1409886-3.9630113-3.963875-2.2994319-2.30202277v.00302272l-3.6009318-3.60093181v-4.53711364h.5658977l.0852841.08528409 9.1474205 9.14742046v-6.04329546l.0850682-.08506818z"/><path d="m61.3685966 11.5195273-.0062614 3.6009318h-12.1308522v-8.22117046l3.6009318 3.60093186v1.0193068zm-7.7446591-1.85595457-4.3924545-4.39202273v-4.693h12.1366818v3.60093182h-8.1430114l1.8797046 1.883375h6.2633068v3.60071591z"/><path d="m68.7487364 7.57391818 3.6009318 3.60093182v3.9455227h-3.6009318zm9.0768181-6.99523864v3.60071591h-5.4758863v5.35001137l-3.6009318-3.60071591v-1.74929546h-5.4650909v-3.60071591z"/><path d="m98.5646375.55877273-4.9343864 10.38393177-1.9850681 4.177625-.3115569-.6557159-1.6974772-3.5728636v-.0002159l-.0196478-.0412386 1.8224887-3.79352277.0036704-.00755682.2003637-.42231818 2.8834659-6.068125zm-7.63325 5.07170454-4.4902614 9.48985223-6.9192386-14.56155677h4.0379318l3.1464432 6.62236363 2.2337955-4.70142045.2737727-.57777273.4596704.99361364z"/><path d="m112.750966 7.84948295c0 1.63184091-.528114 3.17343185-1.527125 4.45830685l-.202523.2601704-2.567375-2.567375.12458-.19669315c.368557-.5816591.563307-1.25745455.563307-1.9544091 0-.97806818-.380864-1.8978409-1.072637-2.58918181-.691557-.69177273-1.611113-1.07285228-2.589182-1.07285228-.696954 0-1.372966.19496591-1.954625.56352273l-.196477.12479546-2.567591-2.56759091.259955-.20252273c1.285307-.99901136 2.827113-1.527125 4.458738-1.527125 1.942103 0 3.768046.75611364 5.141444 2.12951136 1.373181 1.37318182 2.129511 3.19934091 2.129511 5.14144318zm-5.119852 2.97371595 2.567591 2.5675909-.260171.2025227c-1.284875.9987955-2.826682 1.527125-4.458523 1.527125-1.942102 0-3.768261-.7563295-5.141227-2.1297273-1.3733976-1.3731818-2.1297272-3.19912497-2.1297272-5.14122725 0-1.63227272.5281137-3.17364772 1.5273409-4.45873863l.2023068-.25995455 2.5675905 2.56759091-.124579.19647727c-.368557.5816591-.563523 1.25745455-.563523 1.954625 0 .97806819.380864 1.897625 1.072637 2.58918185.69134.6915568 1.611113 1.0726363 2.589181 1.0726363.697171 0 1.372966-.19475 1.954625-.5633068z"/><path d="m124.574299 6.03133409c.058727-.011875.117239-.02806818.173375-.04814773.171432-.06131818.324511-.15847727.455136-.28931818.018568-.01856818.035625-.03670454.050955-.05397727.00475-.00518182.008852-.00993182.012954-.01489773l.004534-.00496591c.008421-.00993182.016841-.02007954.024614-.03001136l.00475-.00626136c.012739-.01597728.025477-.03325.040807-.05484091.011011-.01511364.020943-.03065909.031307-.04620455.030227-.0475.057432-.09694318.080318-.14746591.073625-.15998863.111193-.33293182.111193-.51343182 0-.02482954-.001079-.04965909-.002159-.07405681-.001511-.02504546-.003455-.04944319-.006693-.0734091-.005614-.04879545-.01425-.09694318-.025693-.14336363-.016194-.06779546-.038864-.13429546-.067364-.19928409h-6.295693l1.72317 1.72295454h3.441375c.082046 0 .163659-.00777272.243114-.02331818zm-9.263364 1.49927273 3.600716 3.60093178v3.9889205h-3.600716zm14.841375 7.58985228h-5.578227l-.085284-.0852841-5.577148-5.56009091v.01122727l-3.600716-3.60093181v-5.30682955h9.716773c.283057 0 .56633.02785227.840966.08290909.817.16365909 1.564045.56460227 2.159523 1.16007955.554022.55445454.942875 1.24557954 1.124238 1.99888636.078591.32494318.11875.66197727.11875 1.00138636 0 .15005682-.007772.30032955-.023318.44714773-.047284 1.16396591-.521204 2.25344318-1.334318 3.06785227-.820023.82131819-1.913171 1.28854546-3.077568 1.31553409l-.005398.00021591-.052682-.00129545c-.063693.00129545-.127386.00129545-.190863.00021591z"/><path d="m131.633295 6.86292955 3.600932 3.60093185v4.6565113h-3.600932zm14.997046 8.25744315h-5.092864l-9.904182-9.90267043v-4.63902273h.173807l5.753546 5.47243182 8.614557-5.69740909v4.31451137l-.13041.08614772-5.885465 3.89521591z"/></g></g><path d="m20.1717386.2375-3.0069659 5.20794318 2.2132841 3.83346591 5.2200341-9.04140909z" fill="url(#c)"/></g></svg>